REM DIRINDEX 1\6,1\2\7,1\2\8,1\2\9,1\3\10,1\3\11,1\4\12,1\4\13,1\4\14,1\5\15,1\5\16,1\5\17
REM DIRNAME cjc040,folder01,folder02,folder03,folder04,folder05,folder06,folder07,folder08,folder09,folder10,folder11,folder12,folder13,folder14,folder15,folder16
TITLE ""
FILE "P2Q_t_0197-0214.mp3" MP3
  TRACK 01 AUDIO
    TITLE "10:cjc040_2043"
    INDEX 01 00:00:00
  TRACK 02 AUDIO
    TITLE "0:"
    INDEX 01 00:01:22
  TRACK 03 AUDIO
    TITLE "11:cjc040_2044"
    INDEX 01 00:02:06
  TRACK 04 AUDIO
    TITLE "0:"
    INDEX 01 00:04:70
  TRACK 05 AUDIO
    TITLE "10:cjc040_2045"
    INDEX 01 00:05:48
  TRACK 06 AUDIO
    TITLE "0:"
    INDEX 01 00:06:65
  TRACK 07 AUDIO
    TITLE "11:cjc040_2046"
    INDEX 01 00:07:45
  TRACK 08 AUDIO
    TITLE "0:"
    INDEX 01 00:11:29
  TRACK 09 AUDIO
    TITLE "10:cjc040_2047"
    INDEX 01 00:12:05
  TRACK 10 AUDIO
    TITLE "0:"
    INDEX 01 00:13:43
  TRACK 11 AUDIO
    TITLE "11:cjc040_2048"
    INDEX 01 00:14:23
  TRACK 12 AUDIO
    TITLE "0:"
    INDEX 01 00:18:37
  TRACK 13 AUDIO
    TITLE "10:cjc040_2049"
    INDEX 01 00:19:16
  TRACK 14 AUDIO
    TITLE "0:"
    INDEX 01 00:20:28
  TRACK 15 AUDIO
    TITLE "11:cjc040_2050"
    INDEX 01 00:21:08
  TRACK 16 AUDIO
    TITLE "0:"
    INDEX 01 00:23:22
  TRACK 17 AUDIO
    TITLE "10:cjc040_2051"
    INDEX 01 00:24:00
  TRACK 18 AUDIO
    TITLE "0:"
    INDEX 01 00:25:19
  TRACK 19 AUDIO
    TITLE "11:cjc040_2052"
    INDEX 01 00:25:72
  TRACK 20 AUDIO
    TITLE "0:"
    INDEX 01 00:27:10
  TRACK 21 AUDIO
    TITLE "10:cjc040_2053"
    INDEX 01 00:27:65
  TRACK 22 AUDIO
    TITLE "0:"
    INDEX 01 00:29:17
  TRACK 23 AUDIO
    TITLE "11:cjc040_2054"
    INDEX 01 00:29:72
  TRACK 24 AUDIO
    TITLE "0:"
    INDEX 01 00:32:07
  TRACK 25 AUDIO
    TITLE "10:cjc040_2055"
    INDEX 01 00:32:62
  TRACK 26 AUDIO
    TITLE "0:"
    INDEX 01 00:34:04
  TRACK 27 AUDIO
    TITLE "11:cjc040_2056"
    INDEX 01 00:34:63
  TRACK 28 AUDIO
    TITLE "0:"
    INDEX 01 00:37:57
  TRACK 29 AUDIO
    TITLE "10:cjc040_2057"
    INDEX 01 00:38:37
  TRACK 30 AUDIO
    TITLE "0:"
    INDEX 01 00:39:56
  TRACK 31 AUDIO
    TITLE "11:cjc040_2058"
    INDEX 01 00:40:34
  TRACK 32 AUDIO
    TITLE "0:"
    INDEX 01 00:41:26
  TRACK 33 AUDIO
    TITLE "10:cjc040_2059"
    INDEX 01 00:42:02
  TRACK 34 AUDIO
    TITLE "0:"
    INDEX 01 00:43:25
  TRACK 35 AUDIO
    TITLE "11:cjc040_2060"
    INDEX 01 00:44:05
  TRACK 36 AUDIO
    TITLE "0:"
    INDEX 01 00:45:28
  TRACK 37 AUDIO
    TITLE "10:cjc040_2061"
    INDEX 01 00:46:06
  TRACK 38 AUDIO
    TITLE "0:"
    INDEX 01 00:47:11
  TRACK 39 AUDIO
    TITLE "11:cjc040_2062"
    INDEX 01 00:47:66
  TRACK 40 AUDIO
    TITLE "0:"
    INDEX 01 00:51:13
  TRACK 41 AUDIO
    TITLE "10:cjc040_2063"
    INDEX 01 00:51:69
  TRACK 42 AUDIO
    TITLE "0:"
    INDEX 01 00:52:71
  TRACK 43 AUDIO
    TITLE "11:cjc040_2064"
    INDEX 01 00:53:55
  TRACK 44 AUDIO
    TITLE "0:"
    INDEX 01 00:56:37
  TRACK 45 AUDIO
    TITLE "10:cjc040_2065"
    INDEX 01 00:57:19
  TRACK 46 AUDIO
    TITLE "0:"
    INDEX 01 00:58:28
  TRACK 47 AUDIO
    TITLE "11:cjc040_2066"
    INDEX 01 00:59:08
  TRACK 48 AUDIO
    TITLE "0:"
    INDEX 01 01:00:17
  TRACK 49 AUDIO
    TITLE "10:cjc040_2067"
    INDEX 01 01:00:68
  TRACK 50 AUDIO
    TITLE "0:"
    INDEX 01 01:02:06
  TRACK 51 AUDIO
    TITLE "11:cjc040_2068"
    INDEX 01 01:02:63
  TRACK 52 AUDIO
    TITLE "0:"
    INDEX 01 01:05:28
  TRACK 53 AUDIO
    TITLE "10:cjc040_2069"
    INDEX 01 01:06:10
  TRACK 54 AUDIO
    TITLE "0:"
    INDEX 01 01:07:17
  TRACK 55 AUDIO
    TITLE "11:cjc040_2070"
    INDEX 01 01:07:74
  TRACK 56 AUDIO
    TITLE "0:"
    INDEX 01 01:09:16
  TRACK 57 AUDIO
    TITLE "10:cjc040_2071"
    INDEX 01 01:10:00
  TRACK 58 AUDIO
    TITLE "0:"
    INDEX 01 01:11:41
  TRACK 59 AUDIO
    TITLE "11:cjc040_2072"
    INDEX 01 01:12:19
  TRACK 60 AUDIO
    TITLE "0:"
    INDEX 01 01:14:41
  TRACK 61 AUDIO
    TITLE "10:cjc040_2073"
    INDEX 01 01:15:21
  TRACK 62 AUDIO
    TITLE "0:"
    INDEX 01 01:16:46
  TRACK 63 AUDIO
    TITLE "11:cjc040_2074"
    INDEX 01 01:17:24
  TRACK 64 AUDIO
    TITLE "0:"
    INDEX 01 01:19:34
  TRACK 65 AUDIO
    TITLE "10:cjc040_2075"
    INDEX 01 01:20:12
  TRACK 66 AUDIO
    TITLE "0:"
    INDEX 01 01:21:53
  TRACK 67 AUDIO
    TITLE "11:cjc040_2076"
    INDEX 01 01:22:31
  TRACK 68 AUDIO
    TITLE "0:"
    INDEX 01 01:23:38
  TRACK 69 AUDIO
    TITLE "10:cjc040_2077"
    INDEX 01 01:24:20
  TRACK 70 AUDIO
    TITLE "0:"
    INDEX 01 01:25:49
  TRACK 71 AUDIO
    TITLE "11:cjc040_2078"
    INDEX 01 01:26:32
  TRACK 72 AUDIO
    TITLE "0:"
    INDEX 01 01:28:55
